<svg xmlns="http://www.w3.org/2000/svg" width="11.353" height="15.566" viewBox="0 0 11.353 15.566">
    <defs>
        <style>
            .cls-1{fill:#999}
        </style>
    </defs>
    <g id="Group_32" data-name="Group 32" transform="translate(-1147.183 -240.679)">
        <path id="Path_57" d="M1148.126 255.9a.345.345 0 0 0 .346.345h8.775a.345.345 0 0 0 .346-.345v-11.2h-9.467v11.2zm6.678-9.3h1.3v7.538h-1.3zm-2.593 0h1.3v7.538h-1.3zm-2.593 0h1.3v7.538h-1.3z" class="cls-1" data-name="Path 57"/>
        <path id="Path_58" d="M1155.773 242.268v-1.243a.345.345 0 0 0-.345-.346h-5.137a.346.346 0 0 0-.346.346v1.675h-2.416a.346.346 0 0 0-.346.346v.874a.346.346 0 0 0 .346.346h10.661a.346.346 0 0 0 .346-.346v-.874a.346.346 0 0 0-.346-.346h-2.417v-.432zm-1.3.361h-3.235v-.653h3.235v.653z" class="cls-1" data-name="Path 58"/>
    </g>
</svg>
