<svg xmlns="http://www.w3.org/2000/svg" width="12.316" height="14.084" viewBox="0 0 12.316 14.084">
    <defs>
        <style>
            .cls-1{fill:#999}
        </style>
    </defs>
    <g id="copy">
        <g id="Group_156" data-name="Group 156">
            <g id="Group_155" data-name="Group 155">
                <path id="Path_101" d="M41.385 0h-8.839a.413.413 0 0 0-.413.413v10.606a.413.413 0 0 0 .413.413h8.839a.413.413 0 0 0 .413-.413V.413A.413.413 0 0 0 41.385 0z" class="cls-1" data-name="Path 101" transform="translate(-32.133)"/>
            </g>
        </g>
        <g id="Group_158" data-name="Group 158" transform="translate(2.652 2.652)">
            <g id="Group_157" data-name="Group 157">
                <path id="Path_102" d="M137.785 96.4h-1.414v8.368a1.239 1.239 0 0 1-1.238 1.238h-6.6v1.414a.413.413 0 0 0 .413.413h8.839a.413.413 0 0 0 .413-.413V96.813a.413.413 0 0 0-.413-.413z" class="cls-1" data-name="Path 102" transform="translate(-128.533 -96.4)"/>
            </g>
        </g>
    </g>
</svg>
